<svg width="14" height="15" viewBox="0 0 14 15" fill="none" xmlns="http://www.w3.org/2000/svg">
<g clipPath="url(#clip0_26_1932)">
<path d="M10.3384 2.55559C10.6053 2.41731 10.7901 2.12551 10.7901 1.78684C10.7901 1.56058 10.7062 1.34358 10.5569 1.18359C10.4076 1.0236 10.205 0.933716 9.99387 0.933716C9.78269 0.933716 9.58016 1.0236 9.43083 1.18359C9.28151 1.34358 9.19762 1.56058 9.19762 1.78684C9.19762 2.1302 9.38684 2.42434 9.65918 2.56028C9.34418 4.3884 8.86074 5.74895 7.06152 6.03958C7.06152 6.03958 7.54605 8.63528 9.8123 8.63528C12.0786 8.63528 12.3082 6.06536 12.3082 6.06536C10.4696 6.16614 10.3143 3.68997 10.3384 2.55559Z" fill="#F19534"/>
<path d="M3.7998 2.55559C3.53293 2.41731 3.34809 2.12551 3.34809 1.78684C3.34809 1.56058 3.43198 1.34358 3.5813 1.18359C3.73063 1.0236 3.93316 0.933716 4.14434 0.933716C4.35551 0.933716 4.55804 1.0236 4.70737 1.18359C4.8567 1.34358 4.94059 1.56058 4.94059 1.78684C4.94059 2.1302 4.75137 2.42434 4.47902 2.56028C4.79402 4.3884 5.27746 5.74895 7.07668 6.03958C7.07668 6.03958 6.59215 8.63528 4.3259 8.63528C2.05965 8.63528 1.83105 6.06653 1.83105 6.06653C3.66855 6.16614 3.82387 3.68997 3.7998 2.55559Z" fill="#F19534"/>
<path d="M9.78174 8.63571C9.79158 8.63571 9.80143 8.63688 9.81127 8.63688C10.4358 8.63688 10.905 8.44117 11.2572 8.15875L9.78174 8.63571Z" fill="#FFCA28"/>
<path d="M13.0426 1.97526C12.6784 1.92253 12.3306 2.29401 12.2671 2.80261C12.2277 3.12019 12.3076 3.41667 12.4618 3.60769L12.1993 4.7737C12.1993 4.7737 11.7979 7.52878 9.77009 8.07253C8.14915 8.50729 7.56181 5.328 7.41962 4.34597C7.72806 4.1819 7.94134 3.84206 7.94134 3.44714C7.94134 2.89284 7.52243 2.44401 7.00509 2.44401C6.48775 2.44401 6.06884 2.89284 6.06884 3.44714C6.06884 3.8444 6.2854 4.18776 6.59931 4.34948C6.48665 5.31862 5.99009 8.39245 4.24009 8.07136C2.46384 7.7444 1.68837 4.53933 1.509 3.66745C1.72228 3.47995 1.8415 3.14948 1.79775 2.7944C1.73431 2.28464 1.35806 1.91901 0.957746 1.97644C0.557434 2.03386 0.28509 2.49323 0.348527 3.00183C0.394465 3.37214 0.606653 3.66628 0.872434 3.77761L2.26368 13.0389C2.26368 13.0389 3.47775 14.0667 7.00509 14.0667C10.5324 14.0667 11.7465 13.0389 11.7465 13.0389L13.141 3.753C13.3663 3.62644 13.5435 3.34167 13.5873 2.99245C13.6518 2.48269 13.4079 2.028 13.0426 1.97526Z" fill="#FFCA28"/>
<path d="M7.04822 11.7085C7.63658 11.7085 8.11354 11.0993 8.11354 10.3479C8.11354 9.5965 7.63658 8.98737 7.04822 8.98737C6.45987 8.98737 5.98291 9.5965 5.98291 10.3479C5.98291 11.0993 6.45987 11.7085 7.04822 11.7085Z" fill="#26A69A"/>
<path d="M7.04892 9.32321C7.09048 9.37243 7.12767 9.46266 7.04892 9.63845C6.97017 9.81423 6.54579 10.0521 6.46814 10.1002C6.39048 10.1494 6.33907 10.1271 6.31501 10.1072C6.20017 10.0088 6.24392 9.7861 6.31829 9.65016C6.47798 9.35602 6.81595 9.05251 7.04892 9.32321Z" fill="#69F0AE"/>
<path d="M6.96959 10.8554C6.84927 10.9175 6.45443 11.1062 6.58459 11.33C6.66115 11.4624 6.81974 11.5187 6.96521 11.5257C7.11068 11.5327 7.25396 11.4835 7.38302 11.412C7.99552 11.0722 8.04474 10.1792 7.92552 10.1113C7.80302 10.041 7.7199 10.2226 7.65646 10.2999C7.46357 10.5314 7.23021 10.7201 6.96959 10.8554Z" fill="#00796B"/>
<path d="M12.9156 9.23416C13.0863 8.22283 12.4519 7.96971 12.4519 7.96971C12.4519 7.96971 12.0428 7.89002 11.8503 9.02791C11.6578 10.1646 12.0669 10.2443 12.0669 10.2443C12.0669 10.2443 12.7439 10.2455 12.9156 9.23416Z" fill="#26A69A"/>
<path d="M12.6347 8.31533C12.7835 8.52861 12.6074 8.84385 12.3219 9.05362C12.2377 9.11572 12.1261 9.09229 12.1097 9.04072C12.0638 8.89307 12.0835 8.72549 12.1447 8.58369C12.3263 8.1583 12.5593 8.20752 12.6347 8.31533Z" fill="#69F0AE"/>
<path d="M1.06704 9.26486C0.895322 8.25471 1.53079 8.00041 1.53079 8.00041C1.53079 8.00041 1.93985 7.92072 2.13235 9.05861C2.32485 10.1953 1.91579 10.275 1.91579 10.275C1.91579 10.275 1.23767 10.2762 1.06704 9.26486Z" fill="#26A69A"/>
<path d="M1.72587 8.34396C1.87243 8.46115 1.81227 8.61466 1.7018 8.72131C1.57602 8.84435 1.47977 8.97912 1.37259 9.11857C1.35618 9.13966 1.33759 9.1631 1.31133 9.16896C1.26102 9.18068 1.22055 9.1256 1.20415 9.07287C1.15712 8.92521 1.16587 8.75177 1.23587 8.61584C1.43493 8.22795 1.66899 8.29826 1.72587 8.34396Z" fill="#69F0AE"/>
<path d="M10.9365 10.214C10.8611 10.6746 10.5165 10.9945 10.1654 10.9289C9.81434 10.8632 9.76622 10.4707 9.84169 10.0101C9.91716 9.54956 10.0867 9.19683 10.4367 9.26246C10.7878 9.32808 11.012 9.75464 10.9365 10.214Z" fill="#F44336"/>
<path d="M3.32772 10.214C3.40319 10.6746 3.74772 10.9945 4.09882 10.9289C4.44991 10.8632 4.49804 10.4707 4.42257 10.0101C4.3471 9.54956 4.17757 9.19683 3.82757 9.26246C3.47757 9.32808 3.25335 9.75464 3.32772 10.214Z" fill="#F44336"/>
<path d="M3.83719 9.90699C3.75734 10.0031 3.56266 10.1964 3.49375 10.0488C3.39969 9.84723 3.52984 9.54254 3.67859 9.44176C3.82734 9.34098 3.94875 9.42066 3.96953 9.5109C3.99469 9.62574 3.90828 9.82027 3.83719 9.90699Z" fill="#FFA8A4"/>
<path d="M10.0598 10.2007C9.9515 10.1831 9.93947 9.78352 10.2304 9.46946C10.3693 9.31946 10.5684 9.49758 10.5181 9.73782C10.4699 9.96633 10.2577 10.2335 10.0598 10.2007Z" fill="#FFA8A4"/>
<path d="M11.9377 11.5085C11.2825 11.8601 9.77973 12.7964 7.00488 12.7964C4.23004 12.7964 2.72723 11.8601 2.07207 11.5085C2.07207 11.5085 1.83691 11.6433 1.83691 11.7839V12.8632C1.83691 13.0074 1.90801 13.1398 2.02395 13.2136C2.53582 13.5371 4.09551 14.3011 7.00598 14.3011C9.91644 14.3011 11.4761 13.5371 11.988 13.2136C12.0449 13.1777 12.0921 13.1264 12.1249 13.065C12.1577 13.0036 12.175 12.934 12.175 12.8632V11.7839C12.1729 11.6433 11.9377 11.5085 11.9377 11.5085Z" fill="#FFCA28"/>
<path d="M4.33084 12.9893C4.63709 13.0537 4.73006 13.0818 4.70928 13.2646C4.66662 13.6244 3.9699 13.5389 3.55756 13.4228C2.70553 13.1826 2.53271 12.9295 2.53271 12.7033C2.53271 12.4959 2.68146 12.4713 2.91115 12.558C3.18568 12.6623 3.61006 12.8381 4.33084 12.9893Z" fill="#FFF59D"/>
<path d="M11.9389 11.7457C11.9389 11.7457 10.1265 12.8449 7.00606 12.8449C3.88559 12.8449 2.07324 11.7457 2.07324 11.7457" stroke="#F19534" stroke-miterlimit="10" strokeLinecap="round"/>
<path d="M2.94995 5.80868C3.53183 5.36337 3.84464 4.56532 3.87198 3.29501C3.87417 3.18017 3.90479 3.14618 3.96276 3.13915C4.05573 3.12861 4.07104 3.21884 4.06995 3.28329C4.0437 4.65439 3.88073 5.51103 3.23542 5.99384C3.2037 6.01728 2.97729 6.16493 2.88104 6.06298C2.7662 5.94345 2.91276 5.83681 2.94995 5.80868Z" fill="#FFCA28"/>
<path d="M3.48323 1.82106C3.46464 1.60895 3.51058 1.22692 4.03011 1.05348C4.18214 1.00309 4.2762 1.08278 4.2937 1.14489C4.33745 1.29957 4.21058 1.36051 4.15261 1.38043C3.75339 1.51871 3.7337 1.732 3.65167 1.86793C3.56964 2.00387 3.48979 1.88551 3.48323 1.82106Z" fill="#FFCA28"/>
<path d="M8.55418 5.52765C9.08027 5.02726 9.42918 4.46828 9.65887 3.19562C9.67965 3.08312 9.71027 3.05265 9.76715 3.05499C9.86012 3.05734 9.86449 3.14992 9.85465 3.2132C9.65996 4.57023 9.47512 4.95695 8.82652 5.72687C8.75324 5.81359 8.57496 5.8921 8.47434 5.80187C8.38356 5.72101 8.48856 5.59093 8.55418 5.52765Z" fill="#FFCA28"/>
<path d="M9.3304 1.83162C9.31181 1.61951 9.35774 1.23748 9.87727 1.06404C10.0293 1.01365 10.1234 1.09334 10.1409 1.15545C10.1846 1.31013 10.0577 1.37107 9.99977 1.39099C9.60055 1.52927 9.58087 1.74255 9.49884 1.87849C9.4179 2.01443 9.33696 1.89607 9.3304 1.83162Z" fill="#FFCA28"/>
<path d="M3.45429 8.39246C2.18335 7.77488 1.80929 6.16355 1.61023 5.46394C1.58398 5.37136 1.5971 5.28347 1.68351 5.25535C1.76991 5.22722 1.82132 5.28699 1.84866 5.37957C1.99304 5.88699 2.55413 7.58152 3.71241 8.06316C3.79663 8.09831 3.92788 8.18386 3.85679 8.33035C3.80976 8.42527 3.65882 8.49207 3.45429 8.39246Z" fill="#FFF59D"/>
<path d="M1.38744 2.88615C1.32619 2.75021 1.30103 2.6213 0.967439 2.47247C0.88322 2.43497 0.827439 2.35177 0.850407 2.25802C0.873376 2.16427 0.960876 2.09396 1.08775 2.1174C1.50009 2.19357 1.58978 2.6424 1.60728 2.79826C1.62369 2.94826 1.44978 3.02208 1.38744 2.88615Z" fill="#FFF59D"/>
<path d="M10.5957 8.39246C11.8667 7.77488 12.2407 6.16355 12.4398 5.46394C12.466 5.37136 12.4529 5.28347 12.3665 5.25535C12.2801 5.22722 12.2287 5.28699 12.2013 5.37957C12.057 5.88699 11.4959 7.58152 10.3376 8.06316C10.2534 8.09831 10.1221 8.18386 10.1932 8.33035C10.2403 8.42527 10.3912 8.49207 10.5957 8.39246Z" fill="#FFF59D"/>
<path d="M12.6638 2.88615C12.725 2.75021 12.7502 2.6213 13.0838 2.47247C13.168 2.43497 13.2238 2.35177 13.2008 2.25802C13.1779 2.16427 13.0904 2.09396 12.9635 2.1174C12.5511 2.19357 12.4615 2.6424 12.444 2.79826C12.4275 2.94826 12.6025 3.02208 12.6638 2.88615Z" fill="#FFF59D"/>
<path d="M6.49474 3.46347C6.56146 3.31699 6.67849 3.1166 7.06021 3.03222C7.20677 2.99941 7.24943 2.93144 7.23631 2.82832C7.21006 2.61386 6.96068 2.6291 6.82615 2.66308C6.37771 2.77558 6.27818 3.20214 6.25959 3.37089C6.24099 3.53144 6.42912 3.60996 6.49474 3.46347Z" fill="#FFF59D"/>
</g>
<defs>
<clipPath id="clip0_26_1932">
<rect width="14" height="15" fill="white"/>
</clipPath>
</defs>
</svg>
